<?xml version="1.0" encoding="UTF-8"?>
<svg width="22px" height="22px" viewBox="0 0 22 22" version="1.1" xmlns="http://www.w3.org/2000/svg" xmlns:xlink="http://www.w3.org/1999/xlink">
    <title>全局样式:20/原子级控件/复选/状态:#选中</title>
    <g id="控件" stroke="none" stroke-width="1" fill="none" fill-rule="evenodd">
        <g id="system-complete">
            <path d="M11,0 C17.075904,0 22,4.92409598 22,11 C22,17.075904 17.0734732,22 11,22 C4.92652679,22 0,17.0734732 0,11 C0,4.92652679 4.92409598,0 11,0 Z" id="Shape" fill="#1890FF"></path>
            <path d="M9.42871875,12.9681652 L7.2069029,10.7463493 C6.90006126,10.4395077 6.40257267,10.4395077 6.09573103,10.7463493 C5.78889035,11.05319 5.78889035,11.550677 6.09573103,11.8575177 C6.09573161,11.8575183 6.0957322,11.8575189 6.09573278,11.8575195 L8.72212536,14.4838955 C9.11265701,14.8744045 9.74581424,14.874407 10.136349,14.483901 L10.5404063,14.0798527 L10.5404063,14.0798527 L16.2813591,8.33795955 C16.588183,8.03108543 16.5881626,7.53359119 16.2813136,7.22674219 C15.974472,6.91990055 15.4769834,6.91990055 15.1701417,7.22674219 L9.42871875,12.9681652 L9.42871875,12.9681652 Z" id="Path" fill="#FFFFFF"></path>
        </g>
    </g>
</svg>