<?xml version="1.0" encoding="UTF-8"?>
<svg width="22px" height="22px" viewBox="0 0 22 22" version="1.1" xmlns="http://www.w3.org/2000/svg" xmlns:xlink="http://www.w3.org/1999/xlink">
    <title>全局样式:20/原子级控件/复选/状态:未选中</title>
    <g id="控件" stroke="none" stroke-width="1" fill="none" fill-rule="evenodd">
        <g id="元素/选择/未选中">
            <path d="M11,22 C4.93492502,22 0,17.0653546 0,10.999496 C0,4.9337633 4.93492502,0 11,0 C17.065075,0 22,4.93464539 22,10.999496 C22,17.0644725 17.0660846,22 11,22" id="Fill" fill="#FFFFFF"></path>
            <path d="M11,0.5 C13.8998633,0.5 16.5248731,1.67505184 18.4249106,3.57508938 C20.3249482,5.47512693 21.5,8.10013672 21.5,11 C21.5,13.8995696 20.3245821,16.5243277 18.4245965,18.4243132 C16.5242275,20.3246822 13.8989967,21.5 11,21.5 C8.10129687,21.5 5.47631792,20.324316 3.57600094,18.4239991 C1.67568396,16.5236821 0.5,13.8987031 0.5,11 C0.5,8.10100334 1.67531776,5.47577251 3.57568679,3.57540349 C5.47567234,1.67541793 8.10043037,0.5 11,0.5 Z" id="Shape" stroke="#CCCCCC"></path>
        </g>
    </g>
</svg>